<?xml version="1.0" encoding="UTF-8"?>
<svg width="729px" height="172px" viewBox="0 0 729 172" version="1.1" xmlns="http://www.w3.org/2000/svg" xmlns:xlink="http://www.w3.org/1999/xlink">
    <!-- Generator: Sketch 52.6 (67491) - http://www.bohemiancoding.com/sketch -->
    <title>First Dark</title>
    <desc>Created with Sketch.</desc>
    <g id="Page-1" stroke="none" stroke-width="1" fill="none" fill-rule="evenodd">
        <g id="First" transform="translate(-77.000000, -402.000000)">
            <g id="First-Dark" transform="translate(1.000000, 326.000000)">
                <path d="M272.3,192 L272.3,126.3 L284,126.3 L284,164.01 L284.18,164.01 L301.55,144.3 L316.22,144.3 L299.03,163.65 L317.75,192 L304.79,192 L290.21,170.22 L290.03,170.22 L284,177.06 L284,192 L272.3,192 Z M323.1,175.08 L323.1,144.3 L334.8,144.3 L334.8,173.82 C334.8,176.820015 335.369994,178.949994 336.51,180.21 C337.650006,181.470006 339.479987,182.1 342,182.1 C344.820014,182.1 347.099991,181.365007 348.84,179.895 C350.580009,178.424993 351.45,176.100016 351.45,172.92 L351.45,144.3 L363.15,144.3 L363.15,192 L351.99,192 L351.99,187.41 L351.81,187.41 C348.869985,191.37002 344.730027,193.35 339.39,193.35 C333.869972,193.35 329.775013,191.700017 327.105,188.4 C324.434987,185.099984 323.1,180.660028 323.1,175.08 Z M386.95,163.74 L386.95,172.47 C386.95,175.350014 387.864991,177.79499 389.695,179.805 C391.525009,181.81501 394.029984,182.82 397.21,182.82 C400.630017,182.82 403.284991,181.575012 405.175,179.085 C407.065009,176.594988 408.01,172.950024 408.01,168.15 C408.01,163.289976 407.065009,159.630012 405.175,157.17 C403.284991,154.709988 400.630017,153.48 397.21,153.48 C394.029984,153.48 391.525009,154.46999 389.695,156.45 C387.864991,158.43001 386.95,160.859986 386.95,163.74 Z M375.25,192 L375.25,126.3 L386.95,126.3 L386.95,148.89 L387.13,148.89 L387.58,148.215 C387.760001,147.944999 388.224996,147.480003 388.975,146.82 C389.725004,146.159997 390.534996,145.560003 391.405,145.02 C392.275004,144.479997 393.414993,144.000002 394.825,143.58 C396.235007,143.159998 397.719992,142.95 399.28,142.95 C405.160029,142.95 410.034981,145.274977 413.905,149.925 C417.775019,154.575023 419.71,160.649963 419.71,168.15 C419.71,175.830038 417.835019,181.949977 414.085,186.51 C410.334981,191.070023 405.310031,193.35 399.01,193.35 C396.429987,193.35 394.09001,192.855005 391.99,191.865 C389.889989,190.874995 388.450004,189.900005 387.67,188.94 L386.41,187.41 L386.23,187.41 L386.23,192 L375.25,192 Z M459.62,175.53 L467.81,182.73 C462.949976,189.810035 456.380041,193.35 448.1,193.35 C441.439967,193.35 436.010021,191.055023 431.81,186.465 C427.609979,181.874977 425.51,175.770038 425.51,168.15 C425.51,160.529962 427.594979,154.425023 431.765,149.835 C435.935021,145.244977 441.199968,142.95 447.56,142.95 C453.920032,142.95 459.154979,145.244977 463.265,149.835 C467.375021,154.425023 469.43,160.529962 469.43,168.15 L469.43,171.66 L437.39,171.66 C437.570001,175.320018 438.574991,178.12499 440.405,180.075 C442.235009,182.02501 444.739984,183 447.92,183 C450.620014,183 452.854991,182.325007 454.625,180.975 C456.395009,179.624993 458.059992,177.810011 459.62,175.53 Z M437.39,162.93 L458.09,162.93 C457.789999,159.869985 456.740009,157.485009 454.94,155.775 C453.139991,154.064991 450.680016,153.21 447.56,153.21 C444.679986,153.21 442.325009,154.139991 440.495,156 C438.664991,157.860009 437.630001,160.169986 437.39,162.93 Z M507,172.74 L518.07,175.62 C516.989995,181.320029 514.650018,185.699985 511.05,188.76 C507.449982,191.820015 502.920027,193.35 497.46,193.35 C490.979968,193.35 485.655021,191.130022 481.485,186.69 C477.314979,182.249978 475.23,176.07004 475.23,168.15 C475.23,160.289961 477.374979,154.125022 481.665,149.655 C485.955021,145.184978 491.249969,142.95 497.55,142.95 C502.890027,142.95 507.359982,144.509984 510.96,147.63 C514.560018,150.750016 516.779996,154.919974 517.62,160.14 L506.73,162.21 C505.589994,156.389971 502.530025,153.48 497.55,153.48 C494.249983,153.48 491.62501,154.724988 489.675,157.215 C487.72499,159.705012 486.75,163.349976 486.75,168.15 C486.75,172.950024 487.70999,176.594988 489.63,179.085 C491.55001,181.575012 494.189983,182.82 497.55,182.82 C502.830026,182.82 505.979995,179.460034 507,172.74 Z M529,174.99 L529,154.2 L521.62,154.2 L521.62,144.3 L529.27,144.3 L529.27,132.6 L540.34,132.6 L540.34,144.3 L552.4,144.3 L552.4,154.2 L540.52,154.2 L540.52,173.91 C540.52,176.430013 540.939996,178.199995 541.78,179.22 C542.620004,180.240005 544.329987,180.75 546.91,180.75 L550.78,180.75 L550.78,192 L545.83,192 C539.409968,192 535.000012,190.650014 532.6,187.95 C530.199988,185.249987 529,180.93003 529,174.99 Z M560.9,192 L560.9,126.3 L573.05,126.3 L573.05,192 L560.9,192 Z" id="kubectl" fill="#FFFFFF"></path>
                <path d="M602.5,174.99 L602.5,154.2 L595.12,154.2 L595.12,144.3 L602.77,144.3 L602.77,132.6 L613.84,132.6 L613.84,144.3 L625.9,144.3 L625.9,154.2 L614.02,154.2 L614.02,173.91 C614.02,176.430013 614.439996,178.199995 615.28,179.22 C616.120004,180.240005 617.829987,180.75 620.41,180.75 L624.28,180.75 L624.28,192 L619.33,192 C612.909968,192 608.500012,190.650014 606.1,187.95 C603.699988,185.249987 602.5,180.93003 602.5,174.99 Z M634.4,192 L634.4,144.3 L645.47,144.3 L645.47,149.34 L645.65,149.34 C646.550005,147.539991 647.884991,146.100005 649.655,145.02 C651.425009,143.939995 653.359989,143.4 655.46,143.4 C656.960007,143.4 658.399993,143.699997 659.78,144.3 L657.98,155.64 C656.659993,155.159998 655.430006,154.92 654.29,154.92 C648.829973,154.92 646.1,158.549964 646.1,165.81 L646.1,192 L634.4,192 Z M694.11,192 L694.11,187.41 L693.93,187.41 L693.48,188.085 C693.299999,188.355001 692.850004,188.819997 692.13,189.48 C691.409996,190.140003 690.600004,190.739997 689.7,191.28 C688.799996,191.820003 687.570008,192.299998 686.01,192.72 C684.449992,193.140002 682.770009,193.35 680.97,193.35 C675.209971,193.35 670.905014,191.985014 668.055,189.255 C665.204986,186.524986 663.78,183.18002 663.78,179.22 C663.78,175.079979 665.009988,171.930011 667.47,169.77 C669.930012,167.609989 674.099971,165.810007 679.98,164.37 C685.440027,163.049993 688.859993,162.000004 690.24,161.22 C691.620007,160.439996 692.31,159.330007 692.31,157.89 C692.31,156.449993 691.635007,155.250005 690.285,154.29 C688.934993,153.329995 686.910013,152.85 684.21,152.85 C681.029984,152.85 678.750007,153.554993 677.37,154.965 C675.989993,156.375007 674.910004,158.279988 674.13,160.68 L664.41,156.63 C665.550006,152.60998 667.769983,149.325013 671.07,146.775 C674.370017,144.224987 678.689973,142.95 684.03,142.95 C689.850029,142.95 694.619981,144.479985 698.34,147.54 C702.060019,150.600015 703.92,155.339968 703.92,161.76 L703.92,192 L694.11,192 Z M682.32,172.47 C679.319985,173.190004 677.355005,174.044995 676.425,175.035 C675.494995,176.025005 675.03,177.149994 675.03,178.41 C675.03,181.650016 677.369977,183.27 682.05,183.27 C685.590018,183.27 688.244991,182.595007 690.015,181.245 C691.785009,179.894993 692.67,178.23001 692.67,176.25 L692.67,167.97 L692.49,167.97 C692.249999,168.450002 691.995001,168.824999 691.725,169.095 C691.454999,169.365001 690.540008,169.814997 688.98,170.445 C687.419992,171.075003 685.200014,171.749996 682.32,172.47 Z M743.74,172.74 L754.81,175.62 C753.729995,181.320029 751.390018,185.699985 747.79,188.76 C744.189982,191.820015 739.660027,193.35 734.2,193.35 C727.719968,193.35 722.395021,191.130022 718.225,186.69 C714.054979,182.249978 711.97,176.07004 711.97,168.15 C711.97,160.289961 714.114979,154.125022 718.405,149.655 C722.695021,145.184978 727.989969,142.95 734.29,142.95 C739.630027,142.95 744.099982,144.509984 747.7,147.63 C751.300018,150.750016 753.519996,154.919974 754.36,160.14 L743.47,162.21 C742.329994,156.389971 739.270025,153.48 734.29,153.48 C730.989983,153.48 728.36501,154.724988 726.415,157.215 C724.46499,159.705012 723.49,163.349976 723.49,168.15 C723.49,172.950024 724.44999,176.594988 726.37,179.085 C728.29001,181.575012 730.929983,182.82 734.29,182.82 C739.570026,182.82 742.719995,179.460034 743.74,172.74 Z M794.27,175.53 L802.46,182.73 C797.599976,189.810035 791.030041,193.35 782.75,193.35 C776.089967,193.35 770.660021,191.055023 766.46,186.465 C762.259979,181.874977 760.16,175.770038 760.16,168.15 C760.16,160.529962 762.244979,154.425023 766.415,149.835 C770.585021,145.244977 775.849968,142.95 782.21,142.95 C788.570032,142.95 793.804979,145.244977 797.915,149.835 C802.025021,154.425023 804.08,160.529962 804.08,168.15 L804.08,171.66 L772.04,171.66 C772.220001,175.320018 773.224991,178.12499 775.055,180.075 C776.885009,182.02501 779.389984,183 782.57,183 C785.270014,183 787.504991,182.325007 789.275,180.975 C791.045009,179.624993 792.709992,177.810011 794.27,175.53 Z M772.04,162.93 L792.74,162.93 C792.439999,159.869985 791.390009,157.485009 789.59,155.775 C787.789991,154.064991 785.330016,153.21 782.21,153.21 C779.329986,153.21 776.975009,154.139991 775.145,156 C773.314991,157.860009 772.280001,160.169986 772.04,162.93 Z" id="trace" fill="#2D71FF"></path>
                <g id="Group-3" transform="translate(157.081978, 157.934153) rotate(-319.000000) translate(-157.081978, -157.934153) translate(48.081978, 43.934153)">
                    <g id="Group-2" transform="translate(109.000000, 108.000000) rotate(-26.000000) translate(-109.000000, -108.000000) translate(27.000000, 28.000000)">
                        <path d="M67.1660224,129.137838 C71.8333423,130.67078 76.8198338,131.5 82,131.5 C86.730589,131.5 91.2996619,130.808467 95.6116429,129.520978 L85.0305566,107.317523 C84.6412549,106.500608 83.9864542,105.83984 83.1731051,105.443143 C81.1875441,104.47472 78.7928671,105.299274 77.8244443,107.284835 L67.1660224,129.137838 Z M54.5964053,122.802867 L65.1836784,100.625917 C65.5735447,99.8092718 65.6749787,98.8845611 65.4714129,98.0028207 C64.9744648,95.8503018 62.8266473,94.5081965 60.6741284,95.0051446 L37.3993274,100.378556 C40.7459838,109.489071 46.8044347,117.289933 54.5964053,122.802867 Z M34.5598737,86.4059045 L58.0982819,81.1960998 C58.9818327,81.0005417 59.7729638,80.511164 60.3424571,79.8078984 C61.7327133,78.0910749 61.4679782,75.5722892 59.7511548,74.1820329 L41.4039612,59.3247685 C37.0233872,66.5163435 34.5,74.9634874 34.5,84 C34.5,84.8068245 34.5201159,85.6089508 34.5598737,86.4059045 Z M50.4195728,48.5179816 L69.0088596,63.3150613 C69.7168734,63.8786405 70.5950662,64.1854895 71.5,64.1854895 C73.709139,64.1854895 75.5,62.3946285 75.5,60.1854895 L75.5,36.941049 C65.9401932,38.2492336 57.2863586,42.4019033 50.4195728,48.5179816 Z M89.5997022,37.1046822 L89.7983391,60.8049406 C89.8059233,61.7098426 90.1201215,62.5854329 90.6896148,63.2886985 C92.079871,65.005522 94.5986567,65.270257 96.3154802,63.8800008 L114.382929,49.2492689 C107.652308,42.9745057 99.0967687,38.6318466 89.5997022,37.1046822 Z M123.248463,60.4291583 L104.557783,75.2858519 C103.84938,75.8489416 103.352845,76.6356004 103.149279,77.5173408 C102.652331,79.6698597 103.994436,81.8176771 106.146955,82.3146253 L129.360036,87.6737873 C129.452777,86.4613581 129.5,85.2361938 129.5,84 C129.5,75.4220321 127.226207,67.3751371 123.248463,60.4291583 Z M126.210972,101.402515 L102.414593,96.1183555 C101.531177,95.9221866 100.607349,96.031367 99.7939998,96.4280639 C97.8084388,97.3964867 96.9838854,99.7911637 97.9523082,101.776725 L108.5088,123.420739 C116.433267,118.081368 122.660366,110.415585 126.210972,101.402515 Z M77.2246615,21.6797089 L75.6109174,9.16153704 C75.2319184,6.22155755 76.4235867,3.29835343 78.75,1.46125766 C80.9621988,-0.285646496 84.0716602,-0.329798566 86.3325666,1.35359078 L86.4771705,1.46125766 C88.9313097,3.28852114 90.1997859,6.30420842 89.7896079,9.33627784 L88.1042883,21.7942998 C103.568991,23.2933043 117.384175,30.4282731 127.470232,41.1195978 L136.08281,32.0926744 C138.129091,29.9479478 141.150789,29.0344161 144.04254,29.686257 C146.792321,30.3060959 148.783481,32.6948155 148.898076,35.511261 L148.905406,35.6913963 C149.029795,38.7485549 147.484444,41.6321795 144.86995,43.2215544 L134.243373,49.6815489 C140.7272,59.5319997 144.5,71.3254075 144.5,84 C144.5,86.9125343 144.300778,89.7785377 143.915217,92.5851265 L155.978738,93.7795283 C158.928623,94.0715945 161.508838,95.8902983 162.77552,98.5703424 C163.980015,101.118811 163.323559,104.158509 161.174721,105.982788 L161.037285,106.099466 C158.704793,108.079661 155.481053,108.637244 152.618965,107.555512 L141.45185,103.334876 C136.703972,117.943926 126.721117,130.19215 113.717167,137.865663 L120.143967,147.632579 C121.773412,150.108873 121.983795,153.258625 120.698159,155.929628 C119.47564,158.469499 116.70023,159.872281 113.930191,159.350377 L113.753024,159.316996 C110.746239,158.750487 108.28415,156.596068 107.323643,153.691052 L103.670119,142.641101 C96.9188638,145.136834 89.6186242,146.5 82,146.5 C73.9882654,146.5 66.3286194,144.992529 59.2892314,142.245757 L55.5623549,153.285269 C54.6141948,156.093847 52.261682,158.198812 49.3653858,158.830151 C46.6112824,159.430494 43.797162,158.107079 42.5030221,155.602943 L42.420251,155.442782 C41.0155049,152.724625 41.1973963,149.45808 42.8952336,146.912684 L49.3175952,137.284286 C36.4559438,129.378638 26.6750061,116.946731 22.1935494,102.207333 L11.0385423,106.343793 C8.2591705,107.37443 5.14282086,106.870882 2.82948061,105.017351 C0.629713052,103.254819 -0.112784017,100.234985 1.01886688,97.653345 L1.09124546,97.4882275 C2.31961509,94.6859429 4.97266546,92.7715957 8.0192931,92.4891936 L19.9317285,91.3849902 C19.646621,88.9629949 19.5,86.4986201 19.5,84 C19.5,70.866612 23.5508794,58.6793576 30.4713395,48.6195355 L19.9188482,42.1137826 C17.3955432,40.5581311 15.8737281,37.7923989 15.9100959,34.8283144 C15.9446782,32.0097506 17.867213,29.5654595 20.5982868,28.8677964 L20.7729619,28.823175 C23.7374521,28.0658848 26.8793592,28.9779272 28.9775864,31.2048385 L37.4344351,40.1803451 C47.7287749,29.7118748 61.6832721,22.8539077 77.2246615,21.6797089 Z M81.9306661,74.0016748 C81.7538597,74.0103951 81.5806271,74.0533156 81.4211308,74.1279182 L74.4681526,77.3806446 C74.1036079,77.5510995 73.838827,77.8734713 73.7487563,78.2565125 L72.0334097,85.562958 C71.9533848,85.9030632 72.0184992,86.2601408 72.2139257,86.5528803 C72.2373804,86.5883022 72.2626057,86.6225885 72.2895112,86.6556163 L77.1020855,92.5141806 C77.3544297,92.8212688 77.7370316,93.0000772 78.1416086,93 L85.8593344,92.9982587 C86.2637602,92.9985473 86.6463351,92.8200719 86.8988576,92.5133099 L91.7096534,86.653875 C91.9621326,86.3466329 92.0567286,85.9444353 91.9666441,85.5612167 L90.2486298,78.2547713 C90.1585591,77.87173 89.8937782,77.5493582 89.5292335,77.3789033 L82.5753661,74.1279182 C82.3747438,74.034074 82.1530621,73.9906649 81.9306661,74.0016748 Z" id="Combined-Shape" fill="#2D71FF" fill-rule="nonzero"></path>
                        <g id="Group" transform="translate(19.000000, 21.000000)"></g>
                    </g>
                    <path d="M102.812758,130 L117.023285,130 L117.862742,221.945222 C117.892994,225.258793 115.23134,227.969497 111.917769,227.99975 C111.899511,227.999917 111.881251,228 111.862992,228 L107.973051,228 C104.659343,228 101.973051,225.313708 101.973051,222 C101.973051,221.981741 101.973135,221.963481 101.973302,221.945222 L102.812758,130 Z" id="Rectangle" fill="#2D71FF" fill-rule="nonzero"></path>
                </g>
            </g>
        </g>
    </g>
</svg>