<?xml version="1.0" standalone="no"?>
<!DOCTYPE svg PUBLIC "-//W3C//DTD SVG 20010904//EN"
 "http://www.w3.org/TR/2001/REC-SVG-20010904/DTD/svg10.dtd">
<svg version="1.0" xmlns="http://www.w3.org/2000/svg"
 width="700.000000pt" height="700.000000pt" viewBox="0 0 700.000000 700.000000"
 preserveAspectRatio="xMidYMid meet">
<metadata>
Created by potrace 1.11, written by Peter Selinger 2001-2013
</metadata>
<g transform="translate(0.000000,700.000000) scale(0.100000,-0.100000)"
fill="#000000" stroke="none">
<path d="M3251 6989 c-708 -51 -1384 -317 -1946 -765 -141 -113 -416 -388
-529 -529 -848 -1062 -1011 -2490 -425 -3715 733 -1529 2479 -2310 4114 -1841
1006 289 1835 1019 2245 1976 281 653 358 1380 220 2065 -65 324 -149 570
-295 865 -186 377 -402 674 -696 960 -718 698 -1694 1055 -2688 984z m2456
-1911 c46 -30 97 -103 116 -162 6 -23 12 -84 12 -136 -1 -83 -4 -103 -29 -158
-29 -63 -86 -125 -132 -142 -34 -13 -4314 -13 -4348 0 -46 17 -103 79 -132
142 -26 57 -29 73 -29 168 0 92 3 112 27 161 31 68 95 135 140 148 21 6 845 9
2184 8 l2150 -2 41 -27z m-22 -1277 c50 -22 90 -68 124 -141 23 -48 26 -68 26
-160 0 -92 -3 -112 -26 -160 -34 -73 -74 -119 -124 -141 -38 -18 -125 -19
-2185 -19 -2060 0 -2147 1 -2185 19 -50 22 -90 68 -124 141 -23 48 -26 68 -26
160 0 92 3 112 26 160 34 73 74 119 124 141 38 18 125 19 2185 19 2060 0 2147
-1 2185 -19z m-1417 -1285 c40 -21 68 -54 99 -121 26 -55 28 -69 28 -180 0
-103 -3 -128 -24 -177 -27 -68 -94 -134 -143 -143 -18 -3 -682 -4 -1475 -3
-1440 3 -1442 3 -1470 24 -37 27 -90 106 -105 157 -20 64 -17 232 5 293 21 61
61 117 102 144 30 20 54 20 1493 20 1237 0 1467 -2 1490 -14z"/>
</g>
</svg>
